/* XPM */
static char *_628f5c7fa724bb7de5638b4849d9c36zYcjbV1SOaC8JZ4q[] = {
/* columns rows colors chars-per-pixel */
"64 64 151 2 ",
"   c None",
".  c #958F7D",
"X  c #ACA18B",
"o  c #BFA284",
"O  c #B4A68F",
"+  c #C1A486",
"@  c #D8BB9C",
"#  c #E7A198",
"$  c #CFBFA2",
"%  c #EDB9AD",
"&  c #EBB8BB",
"*  c #D5C2A6",
"=  c #D9C4A7",
"-  c #E3C6A4",
";  c #E5C9A7",
":  c #E0CAAC",
">  c #EDCFAE",
",  c #F4C2AB",
"<  c #F4C9AE",
"1  c #E5CFB0",
"2  c #EFC1B8",
"3  c #F7C7B0",
"4  c #F8C7B1",
"5  c #F5CBB0",
"6  c #F8CDB3",
"7  c #F8CABA",
"8  c #EED3B3",
"9  c #F1D6B5",
"0  c #FAD3B6",
"q  c #F2D8B6",
"w  c #F9D3BB",
"e  c #F4DBB9",
"r  c #FBDCBA",
"t  c #FDE1BE",
"y  c #DBD7C8",
"u  c #E3DDCD",
"i  c #EEDFC9",
"p  c #FAD5C2",
"a  c #F2DEC3",
"s  c #FBDCC5",
"d  c #E3DFD2",
"f  c #EBE0CB",
"g  c #F5E2C5",
"h  c #FDE4C2",
"j  c #FEE8C5",
"k  c #F1E2C9",
"l  c #FCE6CA",
"z  c #F7E8CA",
"x  c #FDEDC9",
"c  c #FEF1CC",
"v  c #E4E2D4",
"b  c #EDE5D5",
"n  c #E7E3D9",
"m  c #EAE6DB",
"M  c #EBE9DE",
"N  c #F2E6D3",
"B  c #FDE7D0",
"V  c #FEEBD3",
"C  c #FBE6DD",
"Z  c #F3EADC",
"A  c #FEEDDC",
"S  c #FFF1DE",
"D  c #EDEBE3",
"F  c #F8E5E1",
"G  c #F2EDE4",
"H  c #F1EFE8",
"J  c #FAECEC",
"K  c #FEF2E4",
"L  c #F4F2ED",
"P  c #FEF4E8",
"I  c #FFF7EA",
"U  c #FDF3EE",
"Y  c #F9F4EC",
"T  c #F9F5ED",
"R  c #FEF4EC",
"E  c #FDF6EF",
"W  c #FEF2E9",
"Q  c #FFF8EF",
"!  c #F5F4F0",
"~  c #F5F4F1",
"^  c #F6F4F0",
"/  c #F7F4F0",
"(  c #F6F5F0",
")  c #F7F5F0",
"_  c #F6F4F1",
"`  c #F6F5F1",
"'  c #F7F5F1",
"]  c #F7F6F0",
"[  c #F7F6F1",
"{  c #F6F6F2",
"}  c #F7F6F2",
"|  c #F7F6F2",
" . c #F8F7F2",
".. c #F8F6F3",
"X. c #F8F7F3",
"o. c #F9F7F3",
"O. c #FEF4F0",
"+. c #FCF7F1",
"@. c #FFF7F2",
"#. c #F8F7F4",
"$. c #F8F7F5",
"%. c #F9F7F4",
"&. c #FDF8F1",
"*. c #FFF9F2",
"=. c #F9F8F5",
"-. c #F9F8F6",
";. c #F9F9F6",
":. c #F9F9F7",
">. c #FAF9F6",
",. c #FAF9F7",
"<. c #FBF9F7",
"1. c #FBFAF7",
"2. c #FEF9F7",
"3. c #FFFBF6",
"4. c #FEFBF7",
"5. c #FAF9F6",
"6. c #FAF9F8",
"7. c #FBF9F8",
"8. c #FAFAF8",
"9. c #FBFAF8",
"0. c #FAFAF9",
"q. c #FBFAF9",
"w. c #FBFBF9",
"e. c #FBFBFA",
"r. c #FCFBF8",
"t. c #FCFBF9",
"y. c #FCFBFA",
"u. c #FFFBFA",
"i. c #FCFCF9",
"p. c #FFFCF8",
"a. c #FCFCFA",
"s. c #FCFCFB",
"d. c #FDFCFB",
"f. c #FDFDFB",
"g. c #FFFCFA",
"h. c #FEFDFA",
"j. c #FEFDFB",
"k. c #FFFDFB",
"l. c #FDFCFC",
"z. c #FDFDFC",
"x. c #FDFDFD",
"c. c #FEFDFC",
"v. c #FEFDFD",
"b. c #FFFEFC",
"n. c #FEFEFD",
"m. c #FFFEFD",
"M. c #FEFEFE",
"N. c #FFFEFE",
"B. c #FFFFFE",
"V. c white",
"C. c #FFFEFE",
/* pixels */
"                                                                                                                                ",
"                                                                                                                                ",
"                                                                                                                                ",
"                                                                                                                                ",
"                                                                                                                                ",
"                                                                                                                                ",
"                                                                                                                                ",
"                                                                                                                                ",
"                                                                                                                                ",
"                                                                                                                                ",
"                                                                                                                                ",
"                                                                                                                                ",
"                                                                                                                                ",
"                                                                                                                                ",
"                                                                                                                                ",
"                                                                                                                                ",
"                                                                                                                                ",
"                                                                                                                                ",
"                                                                                                                                ",
"                                                                                                                                ",
"                                                                                                                                ",
"                                                                                                                                ",
"                                                                                                                                ",
"                                                                                                                                ",
"                                                                                                                                ",
"                                                                                                                                ",
"                                            M                                                                                   ",
"                                      G [ [ [ L L [ G n                                                                         ",
"                                  v D ;.N.N.N.N.y.N.8.[ L D                                                                     ",
"                                f L ;.1.k.N.N.N.N.N.k.k.N.L                                                                     ",
"                            c k m Y S V A A A K P R A P y.8.L f r h x                                                           ",
"                            z Z T A h t h h h l h h h l P r.1.f r h j                                                           ",
"                              D I t t t t t t t t r t t V &.k.H k l                                                             ",
"                            d G V t q $ q t r t r h t t h R N.8.m                                                               ",
"                            D @.l t : . 1 t r * X e h r h K N.N.[ M                                                             ",
"                            D @.s r q = e t r = O q r 0 h P N.N.k.L m v                                                         ",
"                            m O.w 0 h t t t t e 8 6 4 4 s R N.{ e.x.;.~ n                                                       ",
"                            ;.P w r h t t r t t r 6 , 7 C k.N.[ ;.N.N.x.D y                                                     ",
"                            y.P r > @ ; 9 t t t r 0 p F y.N.N.e.N.N.N.N.;.[ { M                                                 ",
"                            D Q s > o + 9 r < , h l P N.N.N.N.N.N.N.N.N.N.N.N.[ n [ #.[                                         ",
"                            M 1.V r ; - r < # % S &.k.N.N.N.N.N.N.N.N.N.N.N.N.x.;.N.N.N.H                                       ",
"                            L N.&.S l g s & & F k.N.N.N.N.N.N.N.N.N.N.N.N.N.N.N.N.N.N.N.e.[ { M                                 ",
"                            G k.N.r.Q T U J U N.N.e.x.N.N.N.N.N.N.N.N.N.N.N.N.N.N.N.N.N.N.N.x.D                                 ",
"                              L N.k.;.N.N.N.N.N.N.[ ~ x.N.N.N.N.N.N.N.N.N.N.N.N.N.N.N.N.N.N.N.L                                 ",
"                              ;.N.8.L N.N.N.N.N.N.e.;.x.N.N.x.[ ;.N.N.N.N.;.x.N.N.N.e.N.N.N.x.8.n                               ",
"                              X.x.x.8.N.N.N.N.N.N.N.x.N.N.N.N.8.;.x.N.N.N.~ ;.x.N.x.H 0.N.N.N.N.m                               ",
"                              n [ N.N.N.N.N.N.N.N.N.N.N.N.N.N.N.N.N.N.N.N.e.x.N.N.x.;.x.N.N.N.e.n                               ",
"                                ;.N.N.N.N.N.N.N.N.N.N.N.N.N.N.N.N.N.N.N.N.N.N.N.N.N.N.N.N.N.N.N.H                               ",
"                                [ N.N.e.8.N.N.N.N.N.N.N.N.N.N.N.N.N.N.N.N.N.N.N.N.N.N.N.N.N.N.N.;.u                             ",
"                                M  .N.{ [ N.N.N.N.N.N.N.N.N.N.N.N.N.N.N.N.N.N.N.N.N.N.N.N.N.N.N.[                               ",
"                                  D N.e.;.N.N.N.x.8.N.N.N.N.N.x.0.x.N.N.N.N.N.N.N.N.N.N.N.N.N.N.L                               ",
"                                  m e.N.N.N.N.N.e.[ x.N.N.N.N.x.~ e.N.N.N.N.x.e.N.N.N.N.N.N.N.k.L                               ",
"                                    L N.N.N.N.N.N.e.N.N.N.N.N.N.e.N.N.N.N.N.x.~ 8.N.N.N.N.N.N.L v                               ",
"                                    n k.N.N.N.N.N.N.N.N.N.N.N.N.N.N.N.N.N.N.N.0.e.N.N.N.N.N.N.;.                                ",
"                                      H ;.;.e.N.N.N.N.N.N.N.N.N.N.N.N.N.N.N.N.N.N.N.N.N.N.N.L H                                 ",
"                                      n G D Y e.N.e.x.N.N.N.N.N.N.N.N.N.N.N.N.N.N.N.[ ;.;.L                                     ",
"                                          k N G L H L ;.e.k.N.N.N.N.N.N.N.N.e.N.N.L N N Z n                                     ",
"                                            t z g   b Z G G L ;.8.{ [ [ { L G G L N g g g                                       ",
"                                            h h t     z z z b G D D     M b g g   a h h t                                       ",
"                                            h t t     h j h               t g t     h j h                                       ",
"                                              h t     h j t               t x h     h j                                         ",
"                                                        h                   c       t h                                         ",
"                                                                                                                                ",
"                                                                                                                                "
};
