/* XPM */
static char *_cc8f7bac796400af214ee9b089d53a3Kh2AJjVvTwMpnvZB[] = {
/* columns rows colors chars-per-pixel */
"64 64 141 2 ",
"   c None",
".  c #9EA4AB",
"X  c #A9ABAD",
"o  c #A7AEB3",
"O  c #A8AFB4",
"+  c #ADB2B6",
"@  c #ADB3B9",
"#  c #B2B3B4",
"$  c #B1B6BB",
"%  c #BCBCBD",
"&  c #C8BCB0",
"*  c #CCC0B5",
"=  c #C6C0BA",
"-  c #CEC3BA",
";  c #D1C6BC",
":  c #D3C9BF",
">  c #B7BCC1",
",  c #BABEC3",
"<  c #BCC2C6",
"1  c #BFC4C8",
"2  c #C0C3C4",
"3  c #C2C6CA",
"4  c #C6CACD",
"5  c #CACBCD",
"6  c #D6CCC3",
"7  c #D8CEC4",
"8  c #DCD4CC",
"9  c #C5C9D0",
"0  c #CACED1",
"q  c #CED1D5",
"w  c #D2D4D5",
"e  c #DFD9D2",
"r  c #D3D6D9",
"t  c #D6D9DC",
"y  c #D9DCDE",
"u  c #E0D7D1",
"i  c #E2DBD4",
"p  c #E5DED8",
"a  c #E5E0D7",
"s  c #E6E1DC",
"d  c #EAE4DE",
"f  c #DCDEE1",
"g  c #DEE1E3",
"h  c #E2E3E5",
"j  c #ECE6E1",
"k  c #EEE9E4",
"l  c #E5E7E8",
"z  c #E7E9EB",
"x  c #EBEEEF",
"c  c #EBEDEE",
"v  c #ECEDEE",
"b  c #ECEDEF",
"n  c #ECEEEF",
"m  c #EDEEEF",
"M  c #EDEFEF",
"N  c #EEEEEE",
"B  c #EBEBEB",
"V  c #F1ECE6",
"C  c #F0ECE8",
"Z  c #F1ECE8",
"A  c #F1EDEA",
"S  c #F2EFEA",
"D  c #F0EEEF",
"F  c #F1EEEA",
"G  c #F4F0ED",
"H  c #F4F1EE",
"J  c #ECEDF0",
"K  c #ECEEF0",
"L  c #EDEEF0",
"P  c #EDEFF0",
"I  c #EEEFF0",
"U  c #EDEFF2",
"Y  c #F7EFF2",
"T  c #EEF0F1",
"R  c #EFF0F1",
"E  c #EFF1F2",
"W  c #F0F0F2",
"Q  c #F0F1F2",
"!  c #F0F2F3",
"~  c #F1F2F3",
"^  c gray95",
"/  c #F3F3F3",
"(  c #F5F2F0",
")  c #F1F2F4",
"_  c #F1F3F4",
"`  c #F2F3F4",
"'  c #F2F3F5",
"]  c #F3F4F4",
"[  c #F2F4F5",
"{  c #F3F4F5",
"}  c #F4F4F4",
"|  c gray96",
" . c #F4F5F6",
".. c #F5F5F6",
"X. c #F5F6F6",
"o. c #F5F6F7",
"O. c #F6F6F7",
"+. c #F6F7F7",
"@. c gray97",
"#. c #F6F4F1",
"$. c #F8F5F3",
"%. c #F9F6F5",
"&. c #FAF8F6",
"*. c #F7F6F8",
"=. c #F6F7F8",
"-. c #F7F7F8",
";. c #FEF4F8",
":. c #FFF7FB",
">. c #F7F8F8",
",. c #F7F8F9",
"<. c #F7F8FA",
"1. c #F8F8F8",
"2. c #F8F8F9",
"3. c #F8F9F9",
"4. c #F9F9F9",
"5. c #F8F9FA",
"6. c #F9F9FA",
"7. c #FBF9FA",
"8. c #F9FAFA",
"9. c gray98",
"0. c #FAFAFB",
"q. c #FAFBFB",
"w. c #FBFBFB",
"e. c #FFF9FB",
"r. c #FBFBFC",
"t. c #FFFBFD",
"y. c #FBFCFC",
"u. c gray99",
"i. c #FCFCFD",
"p. c #FCFDFD",
"a. c #FDFDFD",
"s. c #FFFCFD",
"d. c #FEFDFD",
"f. c #FDFDFE",
"g. c #FEFDFE",
"h. c #FDFEFE",
"j. c #FEFEFE",
"k. c #FEFEFF",
"l. c #FFFEFF",
"z. c white",
"x. c #FCFBFA",
/* pixels */
"                                                                                                                                ",
"                                                                                                                                ",
"                                                                                                                                ",
"                                                                                                                                ",
"                                                                                                                                ",
"                                                                                                                                ",
"                                                                                                                                ",
"                                                                                                                                ",
"                                                                                                                                ",
"                                                                                                                                ",
"                                                                                                                                ",
"                                                                                                                                ",
"                                                                                                                                ",
"                                                                                                                                ",
"                                                                                                                                ",
"                                                                                                                                ",
"                                                                                                                                ",
"                                                                                                                                ",
"                                                                                                                                ",
"                                                                                                                                ",
"                                                                                                                                ",
"                                                                                                                                ",
"                                                                                                                                ",
"                                                                                                                                ",
"                                                                                                                                ",
"                                        t r                                                                                     ",
"                              0 t < r T X.X./ r                                                                                 ",
"                              0 t t T f.f.f.r.X.y f T y                                                                         ",
"                                0 g B x.9.B 9.f.J l K y                                                                         ",
"                              3 l y w X./ 5 D x.J 3 1                                                                           ",
"                            t J r./ N u.%.h Y x.-.1                                                                             ",
"                          0 B ' X.y.f.f.f.x.;.:.f.w                                                                             ",
"                          4 B y h 9.f.f.f.f.r.r.f.l                                                                             ",
"                            g 0 h X.9.-.X.' X.f.f.r.y                                                                           ",
"                              > r g g f r t l -.f.f.<.f 3                                                                       ",
"                                          h ] -.f.f.f.r.B y w 0 0 4                                                             ",
"                                          h 9.9.f.f.f.f.f.9.9.9.X.' T N T N l f q                                               ",
"                                          t -.f.f.f.u.f.f.9.f.f.f.f.9.f.f.f.y.<.<.t O                                           ",
"                                          q X.f.f.u.4.u.f.X.f.f.f.f.X.f.f.f.<.9.f.9.0 ,                                         ",
"                                          2 ] f.u.f.f.f.f.u.f.f.f.f.w.f.f.f.y.<.f.f.B t ,                                       ",
"                                            / 9.X.f.f.f.f.f.f.f.f.f.f.f.f.f.f.f.f.f.f.t 1                                       ",
"                                            B r.9.f.f.f.4.f.f.f.f.f.f.f.f.f.X.u.f.f.f.r                                         ",
"                                            t <.f.f.f.f.X.9.f.f.f.4.w.f.f.f.f.f.f.f.f.g                                         ",
"                                            3 ' f.f.f.f.f.f.f.f.f.f.f.f.f.f.f.f.9.9.f.g                                         ",
"                                              b X.f./ 9.f.f.X.-.f.f.f.f.f.f.f.f.9.9.f.f                                         ",
"                                              r g J y b f.f.l l u.f.f.f.f.f.9.f.f.f.f.t                                         ",
"                                              < g g r r X.f.l g N / T N N B h T f.f.f.q                                         ",
"                                                B N y 0 / f.B 3 4 0 4 1 , r y r ] f.f.5                                         ",
"                                                r X.y.t z y.K             h 9.g f 9.f.3                                         ",
"                                                < ' f.f f <.]             < / T < T ]                                           ",
"                                                  b f.y 0 / ] 4           , / B + b B                                           ",
"                                                  g 9.y < J <.4           3 / t + T h                                           ",
"                                        8 p 8     5 ] g $ b <.4     i a e w / w 2 / y                                           ",
"                                  6 p p H $.S p = % ] l + h <.9   8 k S d r b w 5 / r     8 j s p 6                             ",
"                                  7 i d V S V p     b g o q K 1       6 = 5 w % # l 9   7 d j S ( 8                             ",
"                                          ;         4 3 . > 0             @ @   . 3       ; ; 7 8                               ",
"                                      e 8 6           X   O #                                                                   ",
"                              : d p p S V d p         8 8 i i 8 i d p i i             8 p p i 8                                 ",
"                              6 j d d k j k j     p j V d S 4.S G / x.S k d       * e d $.$.V s -                               ",
"                                                - G r.r.$.S %.f.%.H x.4.%.x.8       8 p k d d i                                 ",
"                                                ; d S B S j B ( $./ ( H S B 7                                                   ",
"                                                    :     8 i p i i i i 8       i p p p p                                       ",
"                                                                              & d S k V V                                       ",
"                                                                                                                                "
};
