/* XPM */
static char *_ca8cdfe7bfe428bf25cc08cb1b7572fSpvjDjf9UUKpIGv8[] = {
/* columns rows colors chars-per-pixel */
"64 64 205 2 ",
"   c #018602",
".  c #098700",
"X  c #028C03",
"o  c #0B8D05",
"O  c #008509",
"+  c #088708",
"@  c #028A0A",
"#  c #0D8D09",
"$  c #138F09",
"%  c #019402",
"&  c #0B9401",
"*  c #039A02",
"=  c #0C9B02",
"-  c #00940B",
";  c #0D930C",
":  c #039A0B",
">  c #0C9D0B",
",  c #139404",
"<  c #1A9503",
"1  c #139D02",
"2  c #1A9E03",
"3  c #13940A",
"4  c #1C950A",
"5  c #119E0C",
"6  c #1C9C0C",
"7  c #049512",
"8  c #0D9513",
"9  c #019C13",
"0  c #0B9E12",
"q  c #099619",
"w  c #019E1C",
"e  c #0C9F1C",
"r  c #129612",
"t  c #139D13",
"y  c #149C1A",
"u  c #189B19",
"i  c #239B02",
"p  c #209F13",
"a  c #04A100",
"s  c #0BA103",
"d  c #0EA10F",
"f  c #0DA908",
"g  c #14A202",
"h  c #1CA302",
"j  c #16AD00",
"k  c #1CAB02",
"l  c #13A10C",
"z  c #1BA40B",
"x  c #17A80E",
"c  c #1CAC0B",
"v  c #1FB101",
"b  c #1EB20E",
"n  c #07A016",
"m  c #0DA214",
"M  c #05A11A",
"N  c #0CA31B",
"B  c #13A314",
"V  c #1BA514",
"C  c #16A817",
"Z  c #1CAB13",
"A  c #14A51A",
"S  c #1AA51B",
"D  c #16A81D",
"F  c #1CAA1C",
"G  c #1EB014",
"H  c #19B21E",
"J  c #23A402",
"K  c #2AA501",
"L  c #23AC02",
"P  c #2CAB02",
"I  c #21A50B",
"U  c #29A60E",
"Y  c #23AD0D",
"T  c #2CAD0A",
"R  c #31A607",
"E  c #32AD02",
"W  c #3AAD00",
"Q  c #33AF0D",
"!  c #24B301",
"~  c #2BB401",
"^  c #26B801",
"/  c #2BBA01",
"(  c #25B40B",
")  c #29B40A",
"_  c #25B90C",
"`  c #2CBA0C",
"'  c #35B302",
"]  c #39B501",
"[  c #34BC01",
"{  c #3DBA01",
"}  c #34B40C",
"|  c #39B60B",
" . c #35BB0C",
".. c #3CBB0B",
"X. c #23A714",
"o. c #2AA715",
"O. c #25AB14",
"+. c #2BAE13",
"@. c #24AD1B",
"#. c #28AF18",
"$. c #31AE11",
"%. c #23B313",
"&. c #2DB213",
"*. c #26B913",
"=. c #2ABB14",
"-. c #25B31C",
";. c #2CB31C",
":. c #26BA1B",
">. c #2BBC1C",
",. c #33B513",
"<. c #34BB14",
"1. c #3ABC14",
"2. c #32B61B",
"3. c #34BB1C",
"4. c #3BBD1B",
"5. c #03A422",
"6. c #0DA621",
"7. c #12A422",
"8. c #1CA421",
"9. c #16AA22",
"0. c #1DAD23",
"q. c #15A629",
"w. c #14AD29",
"e. c #1AAE29",
"r. c #1EB125",
"t. c #17B12E",
"y. c #1DB22B",
"u. c #17B532",
"i. c #1FB731",
"p. c #1EB832",
"a. c #21AE23",
"s. c #24AF28",
"d. c #23B325",
"f. c #2BB523",
"g. c #26BA23",
"h. c #2BBB24",
"j. c #23B52B",
"k. c #29B729",
"l. c #26B92D",
"z. c #2ABB2D",
"x. c #30B626",
"c. c #33BC23",
"v. c #38BE21",
"b. c #32BE2B",
"n. c #21B730",
"m. c #25BB32",
"M. c #2ABD32",
"N. c #42BD01",
"B. c #41BE0A",
"V. c #3CC101",
"C. c #3DC30C",
"Z. c #35C113",
"A. c #3CC114",
"S. c #34C11B",
"D. c #3DC21C",
"F. c #2DC02C",
"G. c #36C024",
"H. c #3CC324",
"J. c #35C12C",
"K. c #3AC42A",
"L. c #3EC829",
"P. c #2DC033",
"I. c #31C231",
"U. c #45C301",
"Y. c #49C501",
"T. c #4CC700",
"R. c #49C604",
"E. c #47C800",
"W. c #4FCC02",
"Q. c #4BC804",
"!. c #4DCA05",
"~. c #46C509",
"^. c #43C40D",
"/. c #44C40C",
"(. c #49C70C",
"). c #47C80C",
"_. c #4CCA0A",
"`. c #4CCB0B",
"'. c #4AC90F",
"]. c #50CB00",
"[. c #50CC00",
"{. c #51CD01",
"}. c #51CF00",
"|. c #52CF03",
" X c #50CE09",
".X c #50CE0A",
"XX c #53D001",
"oX c #42C213",
"OX c #45C510",
"+X c #43C414",
"@X c #47C715",
"#X c #48C611",
"$X c #47C916",
"%X c #4AC912",
"&X c #4ACB14",
"*X c #4ACB15",
"=X c #43C51A",
"-X c #46C91C",
";X c #49CB1A",
":X c #50D012",
">X c #41C621",
",X c #40C623",
"<X c #43C923",
"1X c #47CB20",
"2X c #48CC20",
/* pixels */
"= C 9 { 1.5.B.~.m.j.a.m.h , S z.&.[.K.m.j.z.c.!.P -.n.H.' X , ! / / Z &Xh E XXQ.z.M.l.J P M.B d.m.X P { w.f.U.1 D z.M.j.c.| ].P ",
"B j.l.c.>XM.$.[.z.s.x.M.k F M.h.[.] - j.L.2.1.P | d.7.B.U.: +   h ! 3./.E Q.XXE 9.P.e.' N.n.d.A n.f.U.Q.1.q.] W.t +.&X' ].U.{ { ",
"B 0.M.@X1.9.I [.K.0.1.M.d.m.h.U.V.s 1 * 2.P.J.1.z.m.M.J.&XM.s.t % s =._.Q.[.U.s d.P.a.Y.Q.z.y.1.Y.K.B.{ h > m oXY.' [.R.] Y.i { ",
"0.X.R.>Xe.% % N.2Xa.B.M.z.2.K U.[ / / ~ *.g.F &X!.2.0 F ~.>.%.0.( ] L &XD.A.z.P.z.n.,.Q.Q.P.3.&X,.1 5.1.4.t.c.T P R.W.h.q.!.J.M.",
"h { K 9.M.d.% h #Xh.&Xd.% Y.Q.] $ & X.z.:.g * W R.Q.[ ! ~ h > L V.N.% ;.M.m.J.F : r.{ Y.T b.T e.z.j.P.z.&Xc.} N.X % Y.J.j.@X1.9 ",
"L L ! / / *.) s c.J.W.V.N.[.Q.t % r j.a.> % > 0.-XW.[.G.e.k.` ^ ] U.% 0.P.i...U.E 0 Y.Y.U.&XY.F P.j.A } T.K ' { h N.[.=Xn.J.Q.J ",
">.>.O.h.B = A % y.c.!.[.E./ Y.3.y.C = % % S M.l.H { [.&XJ.=.^ % ' ~.e.b.H.&XQ.T.] z T.3.0.N.[.&X-.2.Y.Q.U.= N.' J [ ~ ( O.g.&XR.",
"4.6.d.j.d.* P N.&X[.&X`.U.C V.N.j.l.B * F l.a.& X h ] U.!.E.J.y..._.;X[.[.Y.3.3 W Q.[.&X;X=XU.[.Q.Q.U.2 = = U.J % h / v Z.%.h Q.",
"Q.&.l.>.M.* ' ] ,.{ Y.Q.XXH.d.!.U.*.>.d.m.z.B ; < ! E.U.~ J Y y.D.&X2.K 1 % : U P % ] ' N.1.>X4.Y.W.h * k L ' % > X E { c h.: P ",
"K ). .^ z.r.h Y.0 6.B k P Q.K.P.&XD.g.z.c.' B G & 5 [ XXT.P 1 * Z -Xw % D d.l X Y.' * { E - j.m.F U.XX' * k ! k 5 s.C R.{ d.j.U.",
"% ! C.] 1.J./ Q.N.B z.j.- , 6 9.z.&Xl.f.&X:.^ d.* & ! ' Q.[.Q.P y.J.j.F.a.t l.w < [.[.{ % & k.j.B = ] W.N.2 % g 3 d.M.b.XX,.H.Q.",
"] R._.XX[.Q.R.W.Q.1 0 z.M.3 % % j.K.b.=XU.^ =.M.C l / g ] N.[.T.H.z.j.F o   a.b.N.'..XN.= % j.j.. # % h ] P A j.M.P.M.m.-X[.Q.| ",
"N.A.^.P T.Q.' ! [.[ * < b.m.& B m.i.:.Q.Z.` :.P.d.> ! l 1 !.I =XXXY.h % 1 # K -X4.z z.$XU.N.v.k.% % @ k : j.M.z.s.D m 7 j.!.-XoX",
"' ).E k / R.XX' Y.V.k E N.d.j.M.J.1.' U.y.$X<.m.j.d.z.C i { : D { XXJ a * X ; y.m.j.M.m.k.3.(.!.R.' P ~ d.F > =   % J 1.{ XX+XD ",
"Y.P j k * % E Y.[.{ X ~ ~.9.H._.).&.P 1.n.J.`.=XM.j.>.z.z.c.0.5 * Y.U.[ ' a.p 2 z.h.0.z.M.9 d.;.E U.{ / % g 1 O i U.!.U.] P ] ~.",
"' [ V.] ] < % 0 3.=Xy.4.Q.{ N.J m M & j.M.:.<.XXW.A./ d.0.a.0.2.^.U.[._.J.h.U.P B ` = 0.I.a.0.A 9.1.=.>.j.-.! h 3.;X .* * 1 Q.Q.",
"D.B.{ ] i y j.M.M.b.y.@X[.+.X % = * S M.l.~ B ;.R.XXR.k % % X r F.L / C.H ] XX1 D >.=.M.M.M.l M 4.~.{ ,.r.Z.E.h.m.-XV.%.g.&X<Xz.",
"n.j.9.@ 8 j.m.f.1.% % U.U.N.N.0.B 5 M.j.C =.: % 1 Y.XXU.= 3 + 0 z.k ! / k U.).z.M.d./ z.S l.V % N.[.U.-.( Z _.>Xr.U.~ ! } &.7.d.",
"= t j.M.F h -.c.=XF a.Q.K.m.&X(.* = l.l.f A.] * ' Y.1 [ & O P h d.` / k % R.1.6.V k / _ 1 -.A 1 Q.W.L D n.J.=XW.P { % 2 ! / h 5 ",
"g S x.d.=./ * O.K.M.J.T.d.D - U.{ w M.d.f.d.@XU.Q.Y.{ U.W > { J n ` / g 1 W.P ! [ ( h.^ 2 { I Q.Q.! = % ] !.z.`.C.3 + X % s ~ h.",
"S.h.D.{ c >.A 2 T.F v.H.% = * * N.c.h.2 ! :.3.[.[.Y.' ~ L = Y.~ k / / k k R.R.U.d.z.m.C N.Y.{ ] ' B % ] T.~ N /.'.k.j.e.Y P +.z.",
"=.* * N.W.;.9.: Y.J = j.d.% 1 d.M.$XT.[.Q.R.H.G.[.!.Y.Q.] % T.P k ! / / V.V.!.!.1 z.M.#.Q.K.M * s d.@XY.h * ! ~ XXd.a.;X&XK.b.M.",
"Y.h : k N.Q.B.e.E R O & B m j.M.=.~ ! / V.P &.z.@XT.P P N.Y.Q.L - h V.j d ..Q.U.U.%.j.;X&Xz.; ; - K 4.m.B * h / Y.o.{ E Y d.m.M.",
"P N.z >.0 J U.=X2 2 & # % j.P.=.! k ^ g ^ s % 9.c.[.] * ! [ [.R./ v ^ ! e.Y.N.* U.s ' XXJ.d.X o o X X d.P.B % ' U.P * 9 d.j.M.V ",
"% f.h 0.P.9.y.M.1 = * & D M.Z.P ' J g / / 1 = % m U.E./ k J P Y.Q.+X` >.z.Q.P % K K Y.' M.a.* > A B = & j.y.P U.! =.d.M.M.d.2.~ ",
"l.j.0.a.S M.M.d.J N.h * z.@.! [ ] N.@ ~ ! + @ 2 ~ / [ s E { % * h &.-.z.K.Y.@ o X 1.c.h.=X_.Y.&X_.!.&X| % c.XX&.y.M.F.z.l.m.H.-X",
"M.m.P.F a.m.b.&X3.,.Y.@.z.! g ^ ' R.2 ! Y : [ R.[ k % E [.' U.Y.Y.{ T m.G.' % y j.z.j.l.M.J.H.B.4.' T m.:.[.N.- l L / _ ) d.,._.",
"d.d.z.M.m.c.|.] - - N.1Xy.k / / / R./ ^ _ U.[.' ' % ' W.{ ] E P 6 , X.M.:.1 % d.P.t & % j.P.N % } ' X s.:XT.1 j / / a C F.! z _.",
"B M.M.l.;.[.' % , X %..XO.% g ~ / [  .[ W.W.U.Y.' P U.I n % , O O   V P.C k ) z.M.0.* > l.A 2 U.U.P N.Q.W.R.k ^ / ~ ' { h.z.z.=X",
"D M.d.l Y.4.w % O - p.-X' % k * ^ / [ [.@X/ / Q.Y.P % * y.,.] 4 E '  .M.A.~ z.y.U K.: F 0.' Q.R.Y.Q._.v.{ @X<.U.Y.Q.Y.3.m l.M.-.",
"M.d.X ' ] F >X..W 1.J.X.N.~ g 1 _ G./ c.m.F ( U.W.Q.] % F :XJ 2 1.H.T j.} T.H.: E ,X7.z N.U.E { ' 1 m.r.Q. .<.K.2.z % y.| !.z.M.",
"j.j.; 4 h { N.;X;XR.U.{ Y.h % L Z M.( j.M.l.9 ~. .[ Y.' N.@X9.j.n.e % 0.- @.| 1 ] >X9.< 4 O ] 1 % B y.{ V.g B 0.J.c.y.>XW.Q.P C ",
"t 0 > % # X 9 n.P.A a U.U.g 2 k > >.%.m.P.e.9.-XK.p.N ' W.b.P.j.& . + % % 9 4 ] Y.,.e.= X { N.X = V :.] 0.% % % %..X&X!..X/.L % ",
"= 1 J % % o j.z.l.j.k W.] g , ; = ^ z.M.H.1.p.c.&.M.J.-X&XJ.d.y 0.9.r K { R.[.] { 5 A % P [.Y  . .! 1 : j.l P U.Q.} W.U.=.'.U.% ",
"0 3.4.;.K 9.P.z.: m.+.Q.N.' % + h / h.M.d.U.<X@.= l.h.V.~.( ! ! 3.1X'.!.Q.N.= 8 c.F * L [.+Xn.-XH.n.d.T =XW.W.U.J T [.R.! Q.V.g ",
"% { 4.e.oX&XJ.M.+.9 ;.[.' Y.1 * ! :.>.U.R.Y.W.R.{ z.J.[.).<.) h h P &.J.b.{ N.J.y.* = W.$X9.5.-XU.D OXW.$X=Xh K N.[.!.Q./ [ ^ v ",
"N.Q.U.h % J k.P.K.M N.T.* !.' s / d.@.K J *. .V./ >.H.D.>X;X.XU.] 3 X 9 j.P.H.Q.N.= ] { b F.f._.R.Y.Y.' N M.%.1 ] Y.% ' V.^ V.U.",
"U.W.N.h A d.M.z.u.H.[.[ % { Q.! / g % * % F M.b.@.V F.j.0.9.O.h U R N.R.Y.=Xv.J ' ] h % P { *XQ.`.A./ ^ 1 m.z.! [ , $ [.E./ R.U.",
"P W.U./.K.l.d.g.[ XX).! = 2 [.[ v L = * V r.@.B.= % 0.3 % 1 2 * h ] ] N.&X'..XQ.{ J g L U.T.H.=X;Xy.! ! % l M.V ~ ! { { [ / h ' ",
"> 1.&Xj.V = - H.[.| O./ = * { T.= ! L % * j.!.' X $ 3 l ] N.U.@X| S C u.M.u.4.' 1 h % [ XXR.( R.=Xm.d.! * % u y = / / v U./ L ' ",
"n.d.B.2 = * J U.V.% k ~ # # - { J a ^ l A R.*XG.o.% * = L ! ) >.S.J.S.G.c.T U.U.t s ] Y.R.@Xb U.J.m.>.k % # % [ ! h ^ / [ U.-.t.",
"X.N.U.L % % 1 * ^ Y k ! % 1 , % 1 z _ =.;X[.6 @.;Xj.B = s h ~ v [ U.W.W.W.R._.K.0 g / : Y.~.: L -.;./ Z + X ] { s ! ! / d.D.`.z.",
"Q.] P { Y.U.N.} =.L k j h h ! ! l j.>.!.R.h % K W.&.C % K < J U.h * k L [ ! z.z.@.0 ! >.;XU.A : ' ' v j.j.;.!.I % 5 ~ v [ ,.OX$X",
"Y % h K 3.1X;X.XV.! ~ U.' - l / >.M.E.U.^ * = R.XX' ^ k [ { % P R.K % > ( h.M.oXB * L =.&X{ N l._.} h = 9.&X-Xm.0.h U.N.A.m.H.R.",
"0.5 0 y.j.j.9.@.%.[ W.R X % = / z.z.! ^ / k ' [.U.] % c V.E.l X P R.z m.z.m.K.Y.g = g / R.' % ] .Xz.z.d.O.!.O.d.z.y.U.:XJ.c.d.&X",
"j.F J 0.: % % A z.[ J X o 5 h ~ F.z.! h / / W...{ ] e @ E !./ L % P H.0.0.M.! E./ B Z / V.1 = Q.' w 0.y.H.N.N @.% 4.[.z.-X{ w <X",
"d.j.d.H.Y.] J > J.-.% ! ~ ! %./ D.m./ k = [ W.S.D.J.M.y.,.Y.* ! L m c X 0.j.A V.3.m.=./ L % { W.E P L % P J D j.' T.3.J.[.R.f.k.",
"F P.z.1 ] [.XXQ.*XD.' J g % 0 ! A.M.x / ^ [ Q.! [ >.h.m.H.R.9.d.z.O.B j.z.M.h._ M.:._ >.L 2 Y.N.Y.|.[.[.Y.P y.j.K P J.`.=X>X(.F ",
"j.M.B % O 5 P ] { =Xv.% % * * L / z.Z.! ~ U.{ w.M.O.k C 4.>Xm.` Z.j.F %.>.^.V.+X=XY.D.d.J R i @ > 1 ;.' { U.=X@XY.R.!.XXc.w ] b.",
"M.l.= . & & % X % ;.>X{ ' = % g [ h.-X~ N.Y.).<Xd.% 1 1.f.Y > z k -.P.>.!  .'.!.W.{ z.z.L * 1 y 0.> m.y.6.{ T.Y.{ 1.D.XXQ.P w.P.",
"B s.= t F D = ] Q.Q.U.c.I ] * ! ~ | oX[.W.L.z.N.Q.h ' @X> % = g s f m.M.-.A._.g ] Q.M.9.= * K ..b.M.m.M.-X&XJ.e.F ).~.R.W.|.K.0.",
"> %.! O.m.M.)..X-Xb.D : - N...a * % 1 Q.R.m * % ' Y.Y.,.=Xk.F g ! ~ z.P.z.H.'.1.: @XP.3.P % % J b.z.=X,.K.j.%.=.r.P XX[ ' =X&X] ",
"/ ! 5 X B &XW.!.'.oXT o O 2 [.R 9 = = +XJ.0.d.d.0.b._.k.Y.K.m.> % g d.P.b.M.M.&XB.H.m.} 1 I ] 3.m.b.G.[ _ ~ >.@.K % ' XXN.z.h.[ ",
"k = X K Q.W.~.>Xx.%   X = 9.H.[.J.m.z._.D.z.M.m.l.z.Q.D =XU.y.z.= % F P.f.l.M.b.@XM.d.J N.U.~.k.D z.` ! h l 0.y.4.N.X P R._ ~ ! ",
"* % } &X' f.j.y.M.j.a.S j.m.+.Y.Q.;.d.Q.R.g = k ! L { F =XY.% 0.0.% Z P.C 0.F m.l.z.B.& h % n y.f.h.z.l.j.z.> % - U.N.X F d.o & ",
"# X f.0.% > M.j.l.d.M.P.M.y.^.' 2 ' 1 [ V.[ / ^ ! { [ _ S.Y.J 1 > % } I.A % * V M.c.@Xj.j.j.a.F j.F l.P.z.y.0.l * h W.,.z.8.X # ",
"% A q.T h * V M.M.j.M.a.t > N.2 : %.) ^ / V.V.U.V.U.Z M.;.V.P { X % 1 l.a.0.F 0.M.l.x.k.k.@.S B 0.z.l.r.C g ! / ` / V..Xh.( g = ",
"1 x.v.N.$ X & m.M.S j.D X J } y.z.Z = ! / / / N.XX] D d.1 ] < T.z F j.M.M.M.m.J.y.;.N.N.J > % O.3.M > % g k h g k h.d.Y.2.m.d.= ",
"T.(.Y.U.- $ q b.+.% F M.A d.M.M.u % = / V.^ * ~ N.U.(.,.= 2 @ Y.| N V a.0 5 N.P ] W.] = F d.g k Y.] s = d.j.B ; % @.m.f.] ,.2XQ.",
"b.e.N.{ % 9.4.-Xt % f M.I.H.a.% X + % ' E.V.%.4.S A I K =   @ U.N.% % e.;.Y.{ { N.3   B M.*./ / [ [.U.= j.j.M.m.j.{ d.M.k.h Y K.",
"M.0.=X} % ] XXb.j.F 5 y M.=XY.U.' i O { [.!.[ -.M.m.y.w.u a.N { N.% ' 4.K.!.Y.+XJ t S j.j.1 z ( =.V.[.'.m.> 9 c.J.b.j.b.M.m.D e.",
"l.M.b.d.+.[.{ q M.P.z.a.y j.=.Y.$X_.N.Y.E.R.V.g.M.H.K.-XJ.M.A ' T.Y.XXU.M.f.1 7.oXI M.M.B a.M.M.0.f V.$XM.X.K Y.M.N B z (.J.l.z.",
"= 0.=X1 R.N.] i j.a.j.d.X r ( g D l.U.Y.~ R.G.m.v.N.Y.@XM.@.% P N.] Y.= h.m.: E _.0.M.d.l.M.y.K.Y.P ' C.m.D.N.S M.Q o % E &Xa.D ",
"* % z P [.* U.W e.j.d.d.%   h >.9.3.&XO.P H.P.h.! * F P.e.2 ! ~ h { Y P E j.=XY.>XM.M.j.a.j.5 M.3.N.Y.{ y.2., 0.M.N.$.a.k.M.=X& "
};
