/* XPM */
static char *dbc9f2e9ef2f441f81206d108dad4062nIMa41rQnwocEW20[] = {
/* columns rows colors chars-per-pixel */
"64 64 211 2 ",
"   c #522C3D",
".  c #55263A",
"X  c #573D4B",
"o  c #573947",
"O  c #4F3744",
"+  c #56414B",
"@  c #5A414E",
"#  c #5E4952",
"$  c #544750",
"%  c #5D565C",
"&  c #5E585E",
"*  c #60565E",
"=  c #615C62",
"-  c #66676B",
";  c #656A6C",
":  c #636265",
">  c #666E70",
",  c #6A6D71",
"<  c #706E73",
"1  c #657474",
"2  c #6A7273",
"3  c #6D7C7B",
"4  c #677A78",
"5  c #707D7C",
"6  c #6D837D",
"7  c #71837E",
"8  c #FFAD41",
"9  c #F6AF4D",
"0  c #F6AF47",
"q  c #F8B147",
"w  c #F4B24B",
"e  c #FAB04A",
"r  c #F5AE54",
"t  c #F3B059",
"y  c #D8AF6F",
"u  c #DCB26D",
"i  c #DAAE73",
"p  c #DAAF7A",
"a  c #CDB27E",
"s  c #D6B275",
"d  c #DBB275",
"f  c #D2B37C",
"g  c #DAB279",
"h  c #E6AF66",
"j  c #E8AE6B",
"k  c #E9AD67",
"l  c #E5B265",
"z  c #EBB163",
"x  c #E4B26B",
"c  c #E9B26B",
"v  c #E2B071",
"b  c #E8B170",
"n  c #6E8480",
"m  c #6E8982",
"M  c #728281",
"N  c #728B85",
"B  c #748D89",
"V  c #798F8C",
"C  c #74928B",
"Z  c #79938D",
"A  c #77988F",
"S  c #7C9791",
"D  c #759B92",
"F  c #7B9B94",
"G  c #7DA197",
"H  c #7DA59B",
"J  c #7DA99D",
"K  c #66ABAA",
"L  c #68ABAB",
"P  c #67ACA7",
"I  c #7CADA3",
"U  c #75AEAC",
"Y  c #7BAFAB",
"T  c #6FB0A8",
"R  c #76B2A7",
"E  c #7DB3A6",
"W  c #75B3AC",
"Q  c #7CB3AC",
"!  c #7CB9AB",
"~  c #6FB7B6",
"^  c #6DBCB6",
"/  c #75B4B1",
"(  c #7CB5B2",
")  c #73B9B4",
"_  c #7DB9B2",
"`  c #7DB7B9",
"'  c #7AB9B9",
"]  c #809A97",
"[  c #82A49C",
"{  c #81AA9E",
"}  c #9AB59E",
"|  c #95B79C",
" . c #BDB28E",
".. c #A6B59D",
"X. c #ABB49C",
"o. c #A4B89F",
"O. c #B5B493",
"+. c #BBB593",
"@. c #BAB49A",
"#. c #B7B29C",
"$. c #84ADA3",
"%. c #85ABA7",
"&. c #84B3A6",
"*. c #8AB6A6",
"=. c #86B9A6",
"-. c #8BB9A6",
";. c #84B5AC",
":. c #8AB6AC",
">. c #85B9AC",
",. c #8BB9AC",
"<. c #94B6A5",
"1. c #9CB6A3",
"2. c #94B9A6",
"3. c #9BBAA4",
"4. c #90B3AD",
"5. c #92B5AB",
"6. c #9AB5AB",
"7. c #92BBAC",
"8. c #9ABDAC",
"9. c #85B7B1",
"0. c #84B5B2",
"q. c #89B5B1",
"w. c #8DB7B1",
"e. c #8AB6B2",
"r. c #86B9B1",
"t. c #84B9B2",
"y. c #89B9B2",
"u. c #8EB9B0",
"i. c #8BBAB1",
"p. c #85B8B9",
"a. c #93B6B2",
"s. c #93BCB2",
"d. c #9BBCB3",
"f. c #A3B5A6",
"g. c #A4B4A2",
"h. c #A9B6A2",
"j. c #A6B8A2",
"k. c #AAB8A1",
"l. c #A2BDAC",
"z. c #A3B3A8",
"x. c #D1AF81",
"c. c #CDB383",
"v. c #C2B48A",
"b. c #C5B385",
"n. c #D1B283",
"m. c #C0B391",
"M. c #95C0AC",
"N. c #9DC2AB",
"B. c #8DC1B5",
"V. c #86C0B1",
"C. c #9DC2B2",
"Z. c #90C0B4",
"A. c #A4C3AD",
"S. c #ADC5AD",
"D. c #ADC8AE",
"F. c #A9C5A8",
"G. c #B2C6AD",
"H. c #B3CAAE",
"J. c #BBCBAD",
"K. c #BAC7AE",
"L. c #B8D3AE",
"P. c #A4C3B2",
"I. c #ADC6B2",
"U. c #A7C8B3",
"Y. c #ADC8B2",
"T. c #ACC5B8",
"R. c #A7C9BA",
"E. c #B2C6B2",
"W. c #B3CAB3",
"Q. c #BCCDB3",
"!. c #B4CBB9",
"~. c #BCCDB9",
"^. c #B8C7B0",
"/. c #BBD1B4",
"(. c #BCD3B9",
"). c #C3CDAE",
"_. c #CACFAF",
"`. c #C5D2AE",
"'. c #CDD2AE",
"]. c #C4CEB4",
"[. c #C9CEB3",
"{. c #C3CEB9",
"}. c #C4D2B4",
"|. c #CAD3B4",
" X c #C5D2B9",
".X c #CCD3BA",
"XX c #CBDAB6",
"oX c #D1D3B6",
"OX c #DBDCB6",
"+X c #D3D4BA",
"@X c #DBDDBB",
"#X c #D3DCBF",
"$X c #E3DDBD",
"%X c #E2DFB6",
"&X c #DCE0B5",
"*X c #DCE1BB",
"=X c #EBE6B7",
"-X c #E3E3BB",
";X c #EBE6BB",
":X c #EDE9BB",
">X c #E1E0B4",
",X c #F2E6B4",
"<X c #F2E9B7",
"1X c #F1E6BA",
"2X c #F3EABB",
"3X c #FAE8BA",
"4X c #E6E6C3",
"5X c #ECEAC2",
"6X c #E8E8C1",
"7X c #F4ECC5",
"8X c #F3E6C3",
/* pixels */
":.,.9.>.:.,.>.:.>.9.>.e.;.,.e.,.:.y.=.w.=.:.y.w.9.:.:.>.y.:.:.9.:.=.>.e.>.:.w.9.=.0.>.e.>.,.:.,.>.y.=.:.=.:.r.:.:.e.,.>.e.>.:.e.",
",.9.=.>.:.:.9.>.>.4.,.:.>.>.*.9.>.&.9.:.r.y.,.*.,.>.:.>.;.r.,.>.9.p.:.>.>.;.-.:.:.4.e.>.>.:.:.>.e.&.9.5.0.e.>.:.>.:.:.r.;.:.;.>.",
"! e.5.;.>.r.=.5.-.;.5.;.:.u.=.p.,.t.,.:.>.>.Q ,.=.9.*.r.>.5.>.,.&.e.5.-.-.r.e.:.-.:.,.=.:.,.:.r.:.>.y.,.r.>.;.,.>.y.*.0.e.2.>.:.",
"p.d v.0.:.9.0.6.x z.) 1.x } >.:.:._ +.d >.( m.g 9.9.:.>.0.i b.) p.d  .! >.9.>.3.x z.) 1.x } r.:.:._ +.d =._ +.d >.q.>.=.0.p b.) ",
"f d :.>.w.9.w.! +.l X.c v.0.q.:.;.,.,.p f O.k 1.0.=.p.:.;.f.l O.f s :.q.0.>.e.>.+.x X.x v.0.e.,.=.>.:.p f O.l f.9.=.y.>.:.3.x m.",
"x ` ;.>.=.u.=.-.) +.8 v.^ 5.>.>.:.w.>.` d w | ' 5.>.;.:.-.) 6.r x ` :.9.:.e.;.w.)  .8 v.~ *.>.9.r.5.:.` d w | ' e.*.;.y.u.Q 5.t ",
"u +.Q ,.,.;.:.t.1.x n.u f.;.e.:.=.>.;. .g f d ;.>.:.=.u.;.0.f f d +._ :.r.;.5.! 1.x c.l z.;.,.-.=.>._  .g f d ;.>.>.-.e.>.0.s f ",
"3.z +.( *.e.;.5.z  .) O.z <.>.:.:.( O.l 1._ g g 0.>.:.,._ g d t.1.z +._ -.e.0.3.z  .) @.z 5.>.:.e._ O.k 1.( s g 9.:.:.,.` g d >.",
"! 1.f.e.=.t.,.5.X.>.e._ X.,.:.e.e.>.f.3.;.e.-.X.e.>.9.t.:.h.-.;.! 1.f.w.>.>.=.a.X.;.e._ X.,.5.>.0.>.f.3.>.e.=.X.e.=.q.>.>.X.-.&.",
":.t.;.:.e.:.:.p.0.>.,.=.9.:.=.:.*.:.0.0.*.>.0.>.>.:.,.*.:.t.:.>.*.p.>.:.:.:.,.>._ :.,.;.0.9.:.;.,.&.t.0.*.>.0.;.>.>.:.:.w.0.e.>.",
"_ :.>.>.Q >.>.;.0.=.e.;.0.>.e.;._ :.>.0.! p.:.t.( :.-.0.Q >.*._ _ ;.=.;.Q e.>.;.t.>.,.>.0.>.e.;.>.:.;.e.! p.:.0.Q ,.:.>.Q =.;.0.",
"+.>.;.j.@.=.;.h.O.,.;.j.O.:.0.j.O.:.9.j.O.=.:.j.@.=.t.z.+.:.r.j.@.y.;.h.@.>._ j. .,.;.h.O.,.0.j.O.y.>.j.O.:.:.h.@.=.p...+.-.p...",
"r 1._ i w z._ u 9 f.0.d q 1._ d e 1./ v e 3._ u w 1.` u 0 } 0.u e } _ y q 1._ u 9 1._ i q } _ u e 1./ v e 1._ u w 1.( d q } ! i ",
"#.=.! h.@.>.;.h.O.*.! h.@.*.>.X.O.5.t.o.+.;.0.h.@.&.=.o.@.>.;.h.@.-.;.j.@.:.;.j.O.-.>.h.+.:.;.j.O.5.>.f.+.:.0.j.@.=.>.j.@.>.;.j.",
"0.:.:.t.0.:.w.Q ! >.w.9.! =.:.t._ ,.;.t.Q ,.=.0.0.r.:.>._ a.w.>.Q w.w.0.;.:.e.>._ -.w.0.! ;.:.t._ ,.=.t._ ,.&.9.0.:.:.>.0.:.:.>.",
"}.{.}.}.`.{.}. X|.{. X}.}.{.].}.}.[.}. X].}.].}.}.[.}.}./._.}.].}.}.`.}.}. X}.}.}.{.{.}.}..X[.}.}.[.].}.[.}.}.}.}.{.}.}./.{.}. X",
"Q _ &.Q Q &.Q Q ;.Q ( Q E ;.;.;.U ;.;.;.E ;.( Q W ;.Q ;.;.Y Q Q ;.W ! 0.;.Q Q &.;.E 0.;.&.;.;.Q / ;.Q ! ;.Y ( ;.! Q Q &.E ( Q Q ",
"E.I.W.Y.Y.E.W.D.I.S.E.E.I.I.G.U.I.I.S.E.U.I.S.I.E.S.D.W.Y.I.G.E.E.E.I.Y.S.E.I.Y.I.I.U.S.I.U.S.G.G.E.E.I.E.E.I.S.G.E.E.I.I.E.E.E.",
"G.I.Y.U.E.I.I.S.I.S.Y.Y.Y.E.G.I.I.Y.I.W.W.G.E.G.E.E.Y.G.P.W.D.E.I.I.G.E.D.Y.G.I.W.E.F.E.!.S.E.E.S.I.I.Y.I.W.S.E.G.I.S.G.R.D.G.D.",
"&./ E ;.0.Y ;.;.( E ! Q _ 0.$._ E Q Q U E Q ( ;.;.E W _ Q Y ! ;.;.;.Q U ;.Q E ( ;.0.Q Q Q Q ( / 0.0.;.;.E Q E ( E 0.0.Q ;.&.W Q ",
"e.8.|.].].].]. XK.E d.+X[.}.Q.}.'.W.0.8..X].Q.]./..XQ.E d.+X XQ././..XK.Q d.|.}.Q.].Q.|.E.;.d.|.Q.]./.Q. XH.&.d.+X~.Q.).].|.W.0.",
"Q F./.,.P.P.2.U.{.W P.Q.*.A.S.s.P.Q.U F.~.:.U.P.6.P.~.T P.].>.I.P.3.P./.T R.{.:.A.T.7.R.Q./ P.).,.U.S.3.A./.W P.Q.7.A.U.7.P.].Q ",
"0.P.K.W.}.K..XA.^.W A.K.W. X!..XP.Q./ A.W.W.}.J.|.F.Q./ A.K.W.(.!.|.P.Q.U F.H.H.}.!.}.P.J.W P.E.!.}.K. XP.].W P.W.K. X~.[.P.W.Q ",
"Q P.W.E.M.P W.T.Q.U U.W.W.7.L J.U.Q.I P.W.W.s.L !.F.~.W P.E.W.2.P /.P.Q.W T.!.W.8.K [.A./.Y P.W.H.d.K /.A.Q.U P.Y.W.u.K ].P.Q.E ",
";.P.W.W.|.Q.[.C.~.W N.^.W.XXW.|.N.Q.Q P.H.W.}.K.|.P.Q.W P.W.W. X^.|.A.~./ A.I.K..XK.`.T.Q.U A.Y.K.|.Q.}.P.).W P.!.H.'.W..XF.!.E ",
";.d.Q.2.P.U.M.P.}.U P.~.5.A.U.s.l.{.U P.Q.:.S.U.8.A.Q./ F.Q.-.Y.U.M.P.Q.U F.(.>.A.U.M.A.Q.U S.Q.>.P.U.8.l.Q.W P./.u.P.U.8.P.].( ",
";.s.oX].Q.J.].`.E.;.8..XQ./.Q.). XI.W l.|.].~.Q.Q.|.G.Q 8.|./.Q.]./.}.E.E 8.|.].Q.Q.~.oX!.W 8..X(.J.J.~..XW.;.5.|.Q./.Q.J.|.S.;.",
"y.>.&.9.a.0.5.p.;.-.>.r.*.-.9.,.,.;.>.0.>.:.r.5.:.9.9.>.,.;.:.:.:.>.:.p.y.:.;.9.,.-.e.>.;.>.t.;.:.u.,.i.>.&.w.t.>.,.y.e.w.:.;.e.",
",.*.>.9.*.>.-.e.,.e.9.*.,.y.u.;.,.5.:.y.>.:.:.9.y.:.y.9.,.:.9.:.9.w.*.:.9.r.,.w.0.>.>.:.w.e.-.:.,.>.>.:.>.:.>.,.5.:.;.=.0.>.=.,.",
"[.}.}.[.[..X}.(.}.}.].[. X}.).]. X X}.}.]. X[.`.].|.}.[._.}.}.|.}.}.[._. X[.}.}.}.[.[.].}.(.[.}. X[. X[.}.].{.[./.}.|.].[. X}. X",
"Q ;.Q _ Q Q 0.&._ ( Q Q Q ;.( ;.! Q E ;.;.Q 0.! ! ;.E ( ( _ ;.Q Q E _ Q Q ;._ $.;.Q ;.Q &.E 0.Q ;.! Q ;.;.;.0.Q ;.Q Q 0.;.;.E ;.",
"Y.W.I.I.I.G.I.S.G.I.G.E.E.I.I.E.E.S.E.I.E.S.S.Y.S.I.E.I.E.U.S.G.E.I.E.E.S.I.I.Y.E.I.E.I.U.G.I.I.G.Y.I.I.U.W.S.G.I.E.G.I.S.U.I.I.",
"I.I.I.Y.S.G.I.U.I.I.G.E.G.P.G.E.I.E.E.E.G.I.E.Y.E.I.I.E.I.T.E.Y.E.T.G.I.E.G.I.Y.T.E.E.E.G.U.G.I.G.I.I.E.G.D.E.Y.I.W.U.E.I.S.E.E.",
"0.E &.Q Q ;.Q ;.E ;.W ! Q &.Q ( Q Y ;.E W ( E &.Q E Q E E E ;.R ( &.&.( Q E ( E E Q W ! Y &.Q ( Q Q ;.;.W W E &.E E 0.E E ;.;./ ",
":.,.,.t.y.-.e.w.w.:.A.;.a.y.9.:.:.y.,.>.7.8.9.:.u.y.e.,.,.:.*.d.,.:.,.>.y.-.e.:.y.-.l.=.u.,.9.a.:.r.:.;.s.8.y.*.w.e.,.:.:.e.&.N.",
"W.E ,.,.:.:.-.,.W N.6X,.;.:.-.>.-.:.,.U |.OXW ,.*.>.:.e.,.,.;.$XQ.U :.,.;.a.>.5.Q N.4X7.;.e.*.>.-.:.,.U [.OX/ ,.;.w.9.:.*.;.;.$X",
"-Xd.Y &.p.:.-.Q e.OX3XoX>.0.:.9.>.;./ d.=X:X!.W r.:.0.,.;.Q L.7X*Xl.E >.>.;.:.Q 0.OX3XoX;.t.:.9.>.=./ P.=X:X!.W t.:.>.*.q.( ~.2X",
"1X;X.X:.r.0.0.W.;X1X:X2X-XA.&.9.r.s.oX1X=X1X:X@Xs.>.:.:.C.*X2X1X8X;X].:.y.e.;.!.;X,X;X2X-XS.&.y.>.a.+X;X=X;X;X@X7.;.a.&.d.@X<X1X",
":X-X!.:.-.>.0.S.>X5X:X=XOXP.;.,.,.,.].=X:X:X;X|.2.9.>.;.8.|.1X:X;X>X/.;.&.:.>.S.%X5X1X;X&XC.;.,.:.,.Q.;X:X:X5X|.s.0.>.>.7.oX;X:X",
"%X9.Q ,.;.:.>.0.Q +X2X|.W 0.w.=.>.r.W ,.;X:XP.U e.5.e.>.0.W W.<X>Xy.U w.>.>.:._ ! +X2X{.W 0.e.=.>.9.W 7.;X1XP.I :.:.e.e.r.R W.2X",
"P.;.y.:.:.>.,.w.>.s.$X,.:.>.e.:.,.>.5.Q Q.+X/ -.9.:.r.=.*.y.&.#XT.;.r.:.:.>.:.e.>.8.@X,.;.,.:.;.:.y.,.R {.+XW ,.t.>.e.>.:.y.&.XX",
":.*.>.>.t.,.>.:.:.>.-.e.,.-.0.r.:.p.:.*.,.-.;.y.,.:.:.>.>.9.:.-.,.:.:.>.,.r.;.=.w.>.,.e.:.-.t.>.-.r.-.:.=.,.>.:.*.,.e.=.>.e.9.M.",
";.y.,.:.>.9.:.>.0.,.;.y.:.>.,.>.9.y.r.>.,.;.:.e.:.:.:.:.y.e.=.;.:.e.y.:.>.9.:.,.r.:.:.>.e.>.,.>.0.,.e.e.;.>.*.w.:.>.;.:.>.9.w.:.",
",.;.:.=.>.>.>.;.:.:.e.>.:._ :.:.:.;.9.>.*.e.>.>.:.>.>.9.:.>.e.p.=.:.:.,.;.9.>.>.,.;.e.:.,.9.0.,.,.e.0.;.,.y.;.9.:.p.>.e.;.:.:._ ",
"x <.` n.x <.` f c 1./ c.x 6.0.f x <.0.f b <.! c.l 6._ f x <.p.a x 5.` n.j 2._ f x 1.Q n.x 6.t.f h 5.9.f j 5.! c.l 5._ f l 2.;.c.",
"x <.` c.k } _ c.l 6._ c.l 5.( a l 6.` c.c 5._ n.x 6._ a c 2.Q n.x 2.` c.j 1._ n.l 5.` c.h 5.) n.l 5.( c.c <._ c.x 6.0.c.j 5._ n.",
":.>.;.:.:.;.9.:.-.;.:.>.*.>.:.0.:.;.t.=.;.>.>.:.:.;.y.e.=.,.>.:.:.:.>.:.=.:.r.;.-.;.-.>.-.>.;.0.:.;.t.>.:.r.;.;.-.>.;.:.-.&.>.>.",
">.w.>.>.;.:.:.>.t.:.;.=.e.q.:.>.;.-.q.>.*.e.>.:.>.,.&.0.y.;.:.r.=.:.>.>.;.;.y.;.9.w.>.>.0.a.:.&.:.>.9.=.*.e.>.:.e.;.:.>.r.:.r.9.",
":.>.:.i.>.& > u.i.,.:.:.>.,.u.C   { u.,.:.t.:.:.i.;.X 3 B.,.>.9.:.>.,.u.3 @ &.i.:.,.>.y.>.,.{   C s.>.>.>.w.y.i.i.> % >.u.,.>.:.",
":.9.$.> [ 5 B D 2 &.:.>.y.B n H 2 [ 2 F i.:.>.I 2 H 3 F B 6 :.>.>.:.6 C D 4 { , [ ,.:.u.] 1 { 2 G 6 B ,.:.:.&.2 D B 7 [ ; &.r.:.",
":.i.H + 2 { F ; # &.,.:.:.; % C I M @ B V.;.V.F o 5 { A : = :.>.>.:.* : D [ 5 o D V.;.>.C @ 7 { C % ; ,.w.>.$.# ; G [ 2 @ H t.*.",
"r.&.i.%.F 6 m H &.;.>.e.y.&.H B 6 C { :.>.5.:.>.{ D 6 N ] $.,.:.:.:.$.[ N M D J ,.w.w.>.*.{ C 6 B H &.y.>.e.-.&.H 6 6 F $.y.:.>.",
":.u.J   D Z F N + %.r.>.,.; : $.7 $.O Z ,.:.e.S . [ B J 3 % &.e.>.:.% 3 H N J . F u.:.i.B O $.7 { : - u.;.>.%.+ N G Z D   H u.:.",
":.>.$., F 5 n S 2 &.e.>.u.N M A - H 2 F >.:.r.$.> F , C B 3 >.>.>.:.3 N C 2 F 1 $.r.:.r.F 4 [ - D M N r.>.,.&.2 F M 5 F , $.y.:.",
">.,.:.i.,.& 2 V.-.i.:.,.:.-.B.Z   $.u.,.:.y.>.>.u.&.+ M V.>.u.:.:.,.>.Z.6 + ;.u.,.>.:.;.t.u.[ O Z Z.,.:.,.:.u.t.t.2 & y.i.:.:.>.",
"u.>.y.:.>.:.:.,.>.,.u.>.y.,.;.:.;.,.,.:.:.:.:.e.:.,.:.=.:.a.>.:.w.r.:.:.:.:.>.:.,.:.>.:.:.:.:.:.:.>.,.,.>.u.;.,.-.:.*.>.:.u.>.w.",
"0.Q Q Q Q Q Q ;.Q E &.Y &.( ;.Q ! Q Q &.Y Q Q E E Q Q ;.;.Q Q E Q Q ;.Q ;.E Q E Q ! Q 0.Y _ Q ;.E Q Q ! E E Q ( ( ;.;.Q ( E ;.Y ",
"S.G.I.I.U.I.G.W.I.!.E.R.S.I.S.T.G.I.E.S.I.T.I.E.E.Y.I.G.S.Y.T.Y.I.G.I.Y.P.W.I.I.E.E.E.S.S.G.S.E.E.I.E.E.E.E.I.E.I.Y.S.I.I.S.I.I.",
"E.E.I.E.W.E.Y.Y.E.T.^.S.Y.E.G.E.E.I.E.E.W.G.S.G.E.E.E.Y.D.Y.W.G.Y.Y.E.I.I.I.E.E.I.I.W.E.E.I.I.S.I.E.I.S.E.W.W.E.U.E.W.E.I.E.E.G.",
";.W ( E I ! W W E / E ;.W &.W W W ;.W ( ( ;.U 0.Y ;.( Y Q E Q Q E Q ;.W Q Q Q ( W E E E ( U _ Q Q E Q Q W U Q E ;.Y Q E ;./ Q Q ",
"r.u.,.5.s.2.5.6.*.s.y.! 5.*.a.2.3.,.7.7.5.r.2.,.>.,.:.7.2.5.u.u.s.2.>.6.:.,.*.5.:.s.5.7.-.7.,.u.u.,.:.:.,.7.7.,.u.7.,.r.e.-.-.y.",
"*.@X2X6X4X:X2X*XQ @X&XE ,.s.-X1X=X6X:X1X&XW ;X.XQ 0.l.4X1X;X:X,X2X|.>.,X}.Q t.F.2X;X6X:X1X7XQ.<.7XK.;.;.W.5X<X:X2X:X2XS.A.7Xl.>.",
"e.Q.|.|. X[.|.(.;.~.K.! ;.a.}. X.XQ.}.+XK.Q [.Y.;.>.5. X|.}.}.}. XK.0.|.P.0.0.C.|.}. X|.|.|.A.,.`.8.0.0.A.|._. X`.|.|.C.7.|.8.9.",
">.! Q Q Q Q E Q :.Q ;.w.e.=.( Q Q E ! U ! t.Q ;.:.,.>.Q / Q E Q W 0.e.W ;.:.:.! Q Q Q W Q Q ;.:.0.0.:.>.Q Q Q Q ( W Q ;.t.Q ;.:."
};
