/* XPM */
static char *_5439701522742bca3a713712d4d9839UlvZgbm3aaTnNvix[] = {
/* columns rows colors chars-per-pixel */
"64 64 126 2 ",
"   c None",
".  c #8B4C17",
"X  c #8D4E1B",
"o  c #924F1A",
"O  c #8F501C",
"+  c #94521D",
"@  c #9A551E",
"#  c #9E581F",
"$  c #A0571F",
"%  c #A2591F",
"&  c #955421",
"*  c #9C5620",
"=  c #9E5820",
"-  c #9C5822",
";  c #9F5922",
":  c #9F5A22",
">  c #9D5821",
",  c #9D5C26",
"<  c #9E5C26",
"1  c #9D5A23",
"2  c #985A28",
"3  c #985B28",
"4  c #995C28",
"5  c #9F5F29",
"6  c #9E5E29",
"7  c #A05720",
"8  c #A15921",
"9  c #A15A20",
"0  c #A25A20",
"q  c #A35B20",
"w  c #A25A21",
"e  c #A25B21",
"r  c #A35B21",
"t  c #A05B22",
"y  c #A05A23",
"u  c #A25A22",
"i  c #A35A22",
"p  c #A25B23",
"a  c #A45B20",
"s  c #A45B23",
"d  c #A55B23",
"f  c #A65B23",
"g  c #A65D20",
"h  c #A45C22",
"j  c #A55D22",
"k  c #A55C23",
"l  c #A55D23",
"z  c #A65D23",
"x  c #A65E22",
"c  c #A25A24",
"v  c #A25B24",
"b  c #A35B24",
"n  c #A55B24",
"m  c #A25C24",
"M  c #A35C24",
"N  c #A45C24",
"B  c #A55C24",
"V  c #A45D25",
"C  c #A55D25",
"Z  c #A75D24",
"A  c #A75C25",
"S  c #A75D25",
"D  c #A65E25",
"F  c #A75D26",
"G  c #A45B22",
"H  c #A95E22",
"J  c #A85E23",
"K  c #A95E23",
"L  c #AA5E22",
"P  c #AA5F22",
"I  c #A95E25",
"U  c #A95F25",
"Y  c #AB5E24",
"T  c #AA5F25",
"R  c #A85D26",
"E  c #A85F26",
"W  c #AB5F26",
"Q  c #AD5F26",
"!  c #AC5F27",
"~  c #A95E24",
"^  c #A05F29",
"/  c #9B602B",
"(  c #9F6129",
")  c #9D602B",
"_  c #9D612B",
"`  c #9E602A",
"'  c #9B602C",
"]  c #9B602D",
"[  c #9E602C",
"{  c #9F662F",
"}  c #9E612B",
"|  c #9F6730",
" . c #AB6024",
".. c #AB6025",
"X. c #AA6025",
"o. c #A0602A",
"O. c #A1602A",
"+. c #A2602B",
"@. c #A46029",
"#. c #A56129",
"$. c #A66129",
"%. c #A6632C",
"&. c #A3652F",
"*. c #A7642C",
"=. c #A7642D",
"-. c #A4652F",
";. c #A5652F",
":. c #A4642E",
">. c #A8642D",
",. c #A9672E",
"<. c #AA672F",
"1. c #B46626",
"2. c #B96527",
"3. c #B76628",
"4. c #B86628",
"5. c #B86728",
"6. c #B96728",
"7. c #A96730",
"8. c #A26831",
"9. c #A36A33",
"0. c #A96830",
"q. c #AB6D34",
"w. c #AB6E34",
"e. c #AC6E35",
"r. c #AE6E35",
"t. c #AA6E35",
/* pixels */
"                                                                                                                                ",
"                                                                                                                                ",
"                                                                                                                                ",
"                                                                                                                                ",
"                                                                                                                                ",
"                                                                                                                                ",
"                                                                                                                                ",
"                                                                                                                                ",
"                                                                                                                                ",
"                                                                                                                                ",
"                                                                                                                                ",
"                                                                                                                                ",
"                                                                                                                                ",
"                                                                                                                                ",
"                                                                                                                                ",
"                                                                                                                                ",
"                                                                                                                                ",
"                                                                                                                                ",
"                                                                                                                                ",
"                                                                                                                                ",
"                                                                                                                                ",
"                                                                                                                                ",
"                                                                                                                                ",
"                                                                                                                                ",
"                                                                                                                                ",
"                                                                                                                                ",
"                                                                                                                                ",
"                                                                                                                                ",
"                                                                                                                                ",
"                                                                                                                                ",
"                                                                                                                                ",
"                                                                                                                                ",
"                                                                                                                                ",
"                                                                                                                                ",
"                                                                                                                                ",
"                                                                                                                                ",
"                                                                                                                                ",
"                                                                                                                                ",
"                                                                                                                                ",
"                                                                                                                                ",
"                                                                                                                                ",
"                                                                                                                                ",
"                                                                                                                                ",
"                                                                                                                                ",
"                                                                                                                                ",
"                                                                                                                                ",
"                                                                                                                                ",
"                                                                                                                                ",
"                                                                                                                                ",
"    + * N 9           @ n M         + * R >           @ n n         + > N             @ g M         o * R             @ d y     ",
"    % 9 5.N         * H ..5.        g 9 6.n         + H ..5.        9 9 6.N         @ H X.5.        g 9 5.N         @ H X.3.    ",
"    @ * R 9         + * 9 X.X       & * X.M         + > 9 !         @ > X.p         + > y R X     X & * X.y         + > d !     ",
"  X | @ %.&.X X X + 6 ^ > w.* * * & | * %.-.& o + & 6 [ > q.& & & O 8.* %.&.& X + + 4 o.> q.& @ @ + { @ =.=.& + + + ' 6 # w.&   ",
"  @ _ @ $.^ @ + & & 4 < > 7.& & * & 6 & $.^ & + + & 3 , # 0.& + @ + 6 & E ^ + + + + 4 , > <.+ + + O 6 @ $._ + + X + 3 , > <.*   ",
"  > & @ 9 > & * * + + @ > N X + + o & + y > o X + o + @ > n o * @ + & & y < + + + + + @ > N . O . X & + N * X X X X + @ > N @   ",
"  O + + n > X       o # > R         @ @ N >         + @ * L         @ + g >         + > > g         @ + g >         + > > H     ",
"    # @ n >         + % @ Y         > @ d >         + # @ !         # + g %         + # @ R         > + d >         + # @ R     ",
"    o + > * o X X + o @ + # X o o X o + # @ X X X X o @ + g         @ + # #       + o @ @ % O + + o o + # @ . . X X o @ + %     ",
"2 Y 9.+ 6 =.9 9 9 - [ o.+ w.& @ @ + 9.+ 6 :.> > 9 > [ o.+ w.> > > * 8.+ _ &.> % % 9 [ _ + t.> p > > 9.+ _ :.> > * & | 6 + w.>   ",
"  + _ + , _ o X o o 3 ^ + %.X X X X o.+ < , X X X + 2 < + =.X X X X 6 + M 6 X . X o 2 < + $.O + o & 6 + < , + + + + 2 - + %.> + ",
"    > + d #         # > @ g         9 + 9 *         @ # * p         > + p >         * # > 9         > + 9 @         * * * > +   ",
"    d @ d >         > 9 > d         g + g @         % > 7 g         g @ g >         > 7 > g         g @ g #         > 7 > %     ",
"    g # N >         p 9 N g         H > R >         9 9 g R         R # R >         9 9 n d         N > R *         9 9 g N     ",
"      9 g             @ 3.            N 9             > 1.            g 9             7 1.            H d             * 3.      "
};
