/* XPM */
static char *_06884d52323465edd923bbdadb53b41FCtnWWrixoWUUuMM[] = {
/* columns rows colors chars-per-pixel */
"64 64 2 1 ",
"  c #00A2E8",
". c white",
/* pixels */
"................................................................",
"................................................................",
"................................................................",
"................................................................",
"................................................................",
".....                                                      .....",
".....                                                      .....",
".....                                                      .....",
".....                                                      .....",
".....                                                      .....",
".....                                                      .....",
".....                                                      .....",
".....                                                      .....",
".....                                                      .....",
".....                                                      .....",
".....                                                      .....",
".....                                                      .....",
".....                                                      .....",
".....                                                      .....",
".....                                                      .....",
".....                                                      .....",
".....                                                      .....",
".....                                                      .....",
".....                                                      .....",
".....                                                      .....",
".....                                                      .....",
".....                                                      .....",
".....                                                      .....",
".....                                                      .....",
".....                                                      .....",
".....                                                      .....",
".....                                                      .....",
".....                                                      .....",
".....                                                      .....",
".....                                                      .....",
".....                                                      .....",
".....                                                      .....",
".....                                                      .....",
".....                                                      .....",
".....                                                      .....",
".....                                                      .....",
".....                                                      .....",
".....                                                      .....",
".....                                                      .....",
".....                                                      .....",
".....                                                      .....",
".....                                                      .....",
".....                                                      .....",
".....                                                      .....",
".....                                                      .....",
".....                                                      .....",
".....                                                      .....",
".....                                                      .....",
".....                                                      .....",
".....                                                      .....",
".....                                                      .....",
".....                                                      .....",
".....                                                      .....",
".....                                                      .....",
"................................................................",
"................................................................",
"................................................................",
"................................................................",
"................................................................"
};
